<svg xmlns="http://www.w3.org/2000/svg" width="34.329" height="38.605"><path d="M33.672 36.447l-8.488-3.917c-.4-.185-.656-.586-.657-1.027V27.98a9.15 9.15 0 0 0 1.836-5.509v-6.334h2.386a1.13 1.13 0 0 0 .979-1.697 1.13 1.13 0 0 0-.979-.565h-.95V12.7a10.63 10.63 0 0 0-4.647-8.784V3.2a1.13 1.13 0 0 0-2.179-.425 10.55 10.55 0 0 0-2.674-.645v-1a1.13 1.13 0 1 0-2.262 0v1c-.917.097-1.817.314-2.677.645a1.13 1.13 0 0 0-2.179.426v.72A10.63 10.63 0 0 0 6.53 12.7v1.17h-.95a1.13 1.13 0 1 0 0 2.262h2.385v6.335a9.15 9.15 0 0 0 1.834 5.512v3.52c-.001.44-.257.842-.657 1.027l-8.485 3.92a1.13 1.13 0 0 0 .474 2.158H33.2a1.13 1.13 0 0 0 .474-2.158zm-21.2-1.916c-.355-.457-.61-.985-.745-1.548.225-.46.34-.966.342-1.48v-1.382a9.18 9.18 0 0 0 10.2 0V31.5c0 .536.128 1.063.372 1.54a4.15 4.15 0 0 1-.746 1.481c-.957 1.207-2.547 1.818-4.726 1.818s-3.76-.605-4.702-1.808zM8.792 12.7c-.001-2.186.855-4.286 2.386-5.847v1.84a1.13 1.13 0 1 0 2.262 0V5.208c.815-.407 1.69-.677 2.594-.8v5.672a1.13 1.13 0 1 0 2.262 0V4.41a8.31 8.31 0 0 1 2.594.8v3.484a1.13 1.13 0 1 0 2.262 0V6.86c1.528 1.56 2.384 3.657 2.384 5.84v1.17H8.792zM24.1 16.136v6.335a6.94 6.94 0 0 1-6.937 6.937 6.94 6.94 0 0 1-6.937-6.937v-6.335zM9.92 34.664c.184.4.41.782.672 1.136a6.25 6.25 0 0 0 .454.543H6.28zm13.385 1.68c.465-.49.848-1.053 1.134-1.665l3.61 1.665zm0 0" fill="#979797"/></svg>