<svg xmlns="http://www.w3.org/2000/svg" width="39.946" height="39.946" viewBox="0 0 39.946 39.946"><defs><style>.a{fill:#979797;stroke:#f2f2f2;stroke-width:1.5px;}</style></defs><g transform="translate(0.75 0.75)"><path class="a" d="M34.379,18.022a3.362,3.362,0,0,0,2.339-.95l3.334,1.667a3.311,3.311,0,0,0-.041.409,3.379,3.379,0,1,0,6.758,0A3.338,3.338,0,0,0,46.43,17.7l4.523-4.523a3.338,3.338,0,0,0,1.448.339,3.383,3.383,0,0,0,3.379-3.379,3.328,3.328,0,0,0-.169-1l3.93-2.947a3.377,3.377,0,1,0-1.509-2.811,3.328,3.328,0,0,0,.169,1l-3.93,2.947a3.364,3.364,0,0,0-4.911,4.258l-4.523,4.523a3.32,3.32,0,0,0-3.786.611l-3.334-1.667a3.307,3.307,0,0,0,.041-.409,3.379,3.379,0,1,0-3.379,3.379Zm0,0" transform="translate(-28.672 0)"/><path class="a" d="M37.32,174.93h-1.2v-23.8A1.126,1.126,0,0,0,34.992,150H30.486a1.126,1.126,0,0,0-1.126,1.126v23.8H27.107V157.884a1.126,1.126,0,0,0-1.126-1.126H21.476a1.126,1.126,0,0,0-1.126,1.126V174.93H18.1V166.9a1.126,1.126,0,0,0-1.126-1.126H12.465a1.126,1.126,0,0,0-1.126,1.126v8.035H9.086V162.39a1.126,1.126,0,0,0-1.126-1.126H3.454a1.126,1.126,0,0,0-1.126,1.126v12.54h-1.2a1.126,1.126,0,0,0,0,2.253H37.32a1.126,1.126,0,0,0,0-2.253Zm0,0" transform="translate(0 -138.736)"/></g></svg>